<svg width="91" height="26" viewBox="0 0 91 26" fill="none" xmlns="http://www.w3.org/2000/svg">
<path d="M6.576 19.392C5.344 19.392 4.24 19.192 3.264 18.792C2.288 18.392 1.504 17.8 0.912 17.016C0.336 16.232 0.032 15.288 0 14.184H4.368C4.432 14.808 4.648 15.288 5.016 15.624C5.384 15.944 5.864 16.104 6.456 16.104C7.064 16.104 7.544 15.968 7.896 15.696C8.248 15.408 8.424 15.016 8.424 14.52C8.424 14.104 8.28 13.76 7.992 13.488C7.72 13.216 7.376 12.992 6.96 12.816C6.56 12.64 5.984 12.44 5.232 12.216C4.144 11.88 3.256 11.544 2.568 11.208C1.88 10.872 1.288 10.376 0.792 9.72C0.296 9.064 0.048 8.208 0.048 7.152C0.048 5.584 0.616 4.36 1.752 3.48C2.888 2.584 4.368 2.136 6.192 2.136C8.048 2.136 9.544 2.584 10.68 3.48C11.816 4.36 12.424 5.592 12.504 7.176H8.064C8.032 6.632 7.832 6.208 7.464 5.904C7.096 5.584 6.624 5.424 6.048 5.424C5.552 5.424 5.152 5.56 4.848 5.832C4.544 6.088 4.392 6.464 4.392 6.96C4.392 7.504 4.648 7.928 5.16 8.232C5.672 8.536 6.472 8.864 7.56 9.216C8.648 9.584 9.528 9.936 10.2 10.272C10.888 10.608 11.48 11.096 11.976 11.736C12.472 12.376 12.72 13.2 12.72 14.208C12.72 15.168 12.472 16.04 11.976 16.824C11.496 17.608 10.792 18.232 9.864 18.696C8.936 19.16 7.84 19.392 6.576 19.392ZM17.3096 4.44C16.5896 4.44 15.9976 4.232 15.5336 3.816C15.0856 3.384 14.8616 2.856 14.8616 2.232C14.8616 1.592 15.0856 1.064 15.5336 0.648001C15.9976 0.216 16.5896 0 17.3096 0C18.0136 0 18.5896 0.216 19.0376 0.648001C19.5016 1.064 19.7336 1.592 19.7336 2.232C19.7336 2.856 19.5016 3.384 19.0376 3.816C18.5896 4.232 18.0136 4.44 17.3096 4.44ZM19.3496 5.832V19.224H15.2456V5.832H19.3496ZM39.4118 5.688C41.0758 5.688 42.3958 6.192 43.3718 7.2C44.3638 8.208 44.8598 9.608 44.8598 11.4V19.224H40.7798V11.952C40.7798 11.088 40.5478 10.424 40.0838 9.96C39.6358 9.48 39.0118 9.24 38.2118 9.24C37.4118 9.24 36.7798 9.48 36.3158 9.96C35.8678 10.424 35.6438 11.088 35.6438 11.952V19.224H31.5638V11.952C31.5638 11.088 31.3318 10.424 30.8678 9.96C30.4198 9.48 29.7958 9.24 28.9958 9.24C28.1958 9.24 27.5638 9.48 27.0998 9.96C26.6518 10.424 26.4278 11.088 26.4278 11.952V19.224H22.3238V5.832H26.4278V7.512C26.8438 6.952 27.3878 6.512 28.0598 6.192C28.7318 5.856 29.4918 5.688 30.3398 5.688C31.3478 5.688 32.2438 5.904 33.0278 6.336C33.8278 6.768 34.4518 7.384 34.8998 8.184C35.3638 7.448 35.9958 6.848 36.7958 6.384C37.5958 5.92 38.4678 5.688 39.4118 5.688ZM51.834 7.728C52.234 7.104 52.786 6.6 53.49 6.216C54.194 5.832 55.018 5.64 55.962 5.64C57.066 5.64 58.066 5.92 58.962 6.48C59.858 7.04 60.562 7.84 61.074 8.88C61.602 9.92 61.866 11.128 61.866 12.504C61.866 13.88 61.602 15.096 61.074 16.152C60.562 17.192 59.858 18 58.962 18.576C58.066 19.136 57.066 19.416 55.962 19.416C55.034 19.416 54.21 19.224 53.49 18.84C52.786 18.456 52.234 17.96 51.834 17.352V25.608H47.73V5.832H51.834V7.728ZM57.69 12.504C57.69 11.48 57.402 10.68 56.826 10.104C56.266 9.512 55.57 9.216 54.738 9.216C53.922 9.216 53.226 9.512 52.65 10.104C52.09 10.696 51.81 11.504 51.81 12.528C51.81 13.552 52.09 14.36 52.65 14.952C53.226 15.544 53.922 15.84 54.738 15.84C55.554 15.84 56.25 15.544 56.826 14.952C57.402 14.344 57.69 13.528 57.69 12.504ZM68.1231 1.464V19.224H64.0191V1.464H68.1231ZM83.7212 12.312C83.7212 12.696 83.6972 13.096 83.6492 13.512H74.3612C74.4252 14.344 74.6892 14.984 75.1532 15.432C75.6332 15.864 76.2172 16.08 76.9052 16.08C77.9292 16.08 78.6412 15.648 79.0412 14.784H83.4092C83.1852 15.664 82.7772 16.456 82.1852 17.16C81.6092 17.864 80.8812 18.416 80.0012 18.816C79.1212 19.216 78.1372 19.416 77.0492 19.416C75.7372 19.416 74.5692 19.136 73.5452 18.576C72.5212 18.016 71.7212 17.216 71.1452 16.176C70.5692 15.136 70.2812 13.92 70.2812 12.528C70.2812 11.136 70.5612 9.92 71.1212 8.88C71.6972 7.84 72.4972 7.04 73.5212 6.48C74.5452 5.92 75.7212 5.64 77.0492 5.64C78.3452 5.64 79.4972 5.912 80.5052 6.456C81.5132 7 82.2972 7.776 82.8572 8.784C83.4332 9.792 83.7212 10.968 83.7212 12.312ZM79.5212 11.232C79.5212 10.528 79.2812 9.968 78.8012 9.552C78.3212 9.136 77.7212 8.928 77.0012 8.928C76.3132 8.928 75.7292 9.128 75.2492 9.528C74.7852 9.928 74.4972 10.496 74.3852 11.232H79.5212ZM87.8063 19.416C87.0863 19.416 86.4943 19.208 86.0303 18.792C85.5823 18.36 85.3583 17.832 85.3583 17.208C85.3583 16.568 85.5823 16.032 86.0303 15.6C86.4943 15.168 87.0863 14.952 87.8063 14.952C88.5103 14.952 89.0863 15.168 89.5343 15.6C89.9983 16.032 90.2303 16.568 90.2303 17.208C90.2303 17.832 89.9983 18.36 89.5343 18.792C89.0863 19.208 88.5103 19.416 87.8063 19.416Z" fill="white"/>
</svg>
